HIERARCHY
ROOT root
{
	OFFSET 0.000000 0.000000 0.000000
	CHANNELS 6 Xposition Yposition Zposition Zrotation Yrotation Xrotation
	JOINT lhip
	{
		OFFSET 0.058581 -0.082280 -0.017664
		CHANNELS 3 Zrotation Yrotation Xrotation
		JOINT lknee
		{
			OFFSET 0.043451 -0.386469 0.008037
			CHANNELS 3 Zrotation Yrotation Xrotation
			JOINT lankle
			{
				OFFSET -0.014790 -0.426874 -0.037428
				CHANNELS 3 Zrotation Yrotation Xrotation
				JOINT ltoe
				{
					OFFSET 0.041054 -0.060286 0.122042
					CHANNELS 3 Zrotation Yrotation Xrotation
					End Site
					{
						OFFSET 0.000000 0.000000 0.000000
					}
				}
			}
		}
	}
	JOINT rhip
	{
		OFFSET -0.060310 -0.090513 -0.013543
		CHANNELS 3 Zrotation Yrotation Xrotation
		JOINT rknee
		{
			OFFSET -0.043257 -0.383688 -0.004843
			CHANNELS 3 Zrotation Yrotation Xrotation
			JOINT rankle
			{
				OFFSET 0.019056 -0.420046 -0.034562
				CHANNELS 3 Zrotation Yrotation Xrotation
				JOINT rtoe
				{
					OFFSET -0.034840 -0.062106 0.130323
					CHANNELS 3 Zrotation Yrotation Xrotation
					End Site
					{
						OFFSET 0.000000 0.000000 0.000000
					}
				}
			}
		}
	}
	JOINT lowerback
	{
		OFFSET 0.004439 0.124404 -0.038385
		CHANNELS 3 Zrotation Yrotation Xrotation
		JOINT upperback
		{
			OFFSET 0.004488 0.137956 0.026820
			CHANNELS 3 Zrotation Yrotation Xrotation
			JOINT chest
			{
				OFFSET -0.002265 0.056032 0.002855
				CHANNELS 3 Zrotation Yrotation Xrotation
				JOINT lowerneck
				{
					OFFSET -0.013390 0.211636 -0.033468
					CHANNELS 3 Zrotation Yrotation Xrotation
					JOINT upperneck
					{
						OFFSET 0.010113 0.088937 0.050410
						CHANNELS 3 Zrotation Yrotation Xrotation
						End Site
						{
							OFFSET 0.000000 0.000000 0.000000
						}
					}
				}
				JOINT lclavicle
				{
					OFFSET 0.071702 0.114000 -0.018898
					CHANNELS 3 Zrotation Yrotation Xrotation
					JOINT lshoulder
					{
						OFFSET 0.122921 0.045205 -0.019046
						CHANNELS 3 Zrotation Yrotation Xrotation
						JOINT lelbow
						{
							OFFSET 0.255332 -0.015649 -0.022946
							CHANNELS 3 Zrotation Yrotation Xrotation
							JOINT lwrist
							{
								OFFSET 0.265709 0.012698 -0.007375
								CHANNELS 3 Zrotation Yrotation Xrotation
								End Site
								{
									OFFSET 0.000000 0.000000 0.000000
								}
							}
						}
					}
				}
				JOINT rclavicle
				{
					OFFSET -0.082954 0.112472 -0.023707
					CHANNELS 3 Zrotation Yrotation Xrotation
					JOINT rshoulder
					{
						OFFSET -0.113228 0.046853 -0.008472
						CHANNELS 3 Zrotation Yrotation Xrotation
						JOINT relbow
						{
							OFFSET -0.260127 -0.014369 -0.031269
							CHANNELS 3 Zrotation Yrotation Xrotation
							JOINT rwrist
							{
								OFFSET -0.269108 0.006794 -0.006027
								CHANNELS 3 Zrotation Yrotation Xrotation
								End Site
								{
									OFFSET 0.000000 0.000000 0.000000
								}
							}
						}
					}
				}
			}
		}
	}
}
MOTION
Frames: 14
Frame Time: 0.033333
-0.034154 1.125640 0.989814 -7.102309 -2.055876 82.648853 -1.300391 2.154870 7.072706 0.898251 -6.372368 4.606068 3.075016 12.062336 -11.520339 0.000000 -0.000000 0.000000 -2.487370 -6.166519 8.001059 -2.779088 -4.785305 -0.039600 1.707593 -12.606726 -10.395775 0.000000 -0.000000 0.000000 -3.933146 4.981824 3.627943 -1.340073 -2.119580 14.175214 -1.859287 1.609204 -3.715887 4.241023 3.207565 -1.535429 7.750557 1.278870 -0.881225 -31.398797 -8.136253 2.633634 -44.184556 -5.904785 11.585384 0.976598 -17.906260 -1.695986 -6.404963 -2.744576 3.847480 30.968735 13.398761 9.086437 52.118908 3.541528 14.260029 -7.589389 23.244147 -8.894162 5.531356 7.019857 -5.747607 
-0.034191 1.125777 0.989450 -7.105300 -1.970297 82.660599 -1.190452 2.048450 7.042046 0.879923 -6.259069 4.598658 2.941815 12.006881 -11.444231 0.000000 -0.000000 0.000000 -2.377440 -6.197201 7.998123 -2.823614 -4.814959 -0.089235 1.798396 -12.494550 -10.347799 0.000000 -0.000000 0.000000 -3.729552 4.908466 3.839250 -1.492873 -2.056526 13.536397 -1.845270 1.623129 -3.300756 4.294083 3.220386 -1.444729 7.775348 1.232095 -0.972169 -31.220048 -8.101762 2.666294 -44.370547 -5.916911 11.476914 1.208348 -18.765043 -1.682795 -5.567071 -3.119794 3.129790 30.879909 13.412825 9.145037 52.294297 3.561947 14.263797 -7.661808 23.260854 -8.661489 5.222305 6.846767 -5.952485 
-0.034217 1.125729 0.989280 -7.112016 -1.947566 82.676924 -1.155914 2.051579 7.012238 0.876510 -6.255518 4.597047 2.893391 12.006568 -11.420292 0.000000 -0.000000 0.000000 -2.337497 -6.216686 7.955610 -2.852024 -4.813780 -0.075157 1.832131 -12.495268 -10.325195 0.000000 -0.000000 0.000000 -3.663598 4.887554 3.852171 -1.528965 -2.042224 13.456194 -1.876935 1.633702 -3.272602 4.302686 3.256305 -1.464108 7.772899 1.229344 -0.902408 -31.272224 -8.041877 2.664200 -44.347681 -5.835844 11.567722 1.287547 -18.729259 -1.334024 -5.227816 -3.331374 3.575766 30.915197 13.358186 9.116794 52.276630 3.586063 14.214354 -7.692179 23.199552 -8.540082 5.170133 6.860500 -5.708564 
-0.034226 1.125777 0.989108 -7.137755 -1.911870 82.676164 -1.104703 2.061291 6.994535 0.865851 -6.245723 4.599432 2.839471 11.986938 -11.369245 0.000000 -0.000000 0.000000 -2.296026 -6.248669 7.923948 -2.868920 -4.818502 -0.068240 1.884315 -12.446579 -10.301448 0.000000 -0.000000 0.000000 -3.584242 4.859657 3.908596 -1.561139 -2.020555 13.348891 -1.889744 1.642974 -3.222167 4.295760 3.312235 -1.475137 7.739551 1.250541 -0.920008 -31.223744 -7.947384 2.669900 -44.450565 -5.782113 11.565942 1.454632 -19.053640 -1.132313 -4.808265 -3.400565 3.809380 30.831582 13.307649 9.083997 52.351276 3.656927 14.159874 -7.749046 23.117231 -8.374343 5.110650 6.659188 -5.452507 
-0.034248 1.125829 0.989129 -7.141932 -1.913989 82.668642 -1.104912 2.066170 6.998313 0.860307 -6.254409 4.615051 2.835812 11.983412 -11.358303 0.000000 -0.000000 0.000000 -2.299744 -6.255052 7.929298 -2.871610 -4.815702 -0.074277 1.895118 -12.432239 -10.295502 0.000000 -0.000000 0.000000 -3.586805 4.859613 3.913865 -1.562295 -2.021124 13.365823 -1.890101 1.644006 -3.235823 4.294970 3.318426 -1.478224 7.732579 1.256696 -0.922268 -31.223409 -7.934277 2.668957 -44.453039 -5.776788 11.556512 1.465348 -19.097224 -1.128717 -4.762777 -3.387764 3.850058 30.831200 13.303080 9.079114 52.351456 3.666494 14.148380 -7.755616 23.097748 -8.364818 5.117195 6.627770 -5.388217 
-0.034258 1.125847 0.989072 -7.157938 -1.917477 82.671689 -1.112538 2.067230 6.990520 0.853346 -6.272446 4.639019 2.820553 11.975088 -11.287443 0.000000 -0.000000 0.000000 -2.304168 -6.262875 7.924485 -2.879497 -4.825476 -0.103511 1.934874 -12.396667 -10.278191 0.000000 -0.000000 0.000000 -3.588923 4.855727 3.920941 -1.566885 -2.023845 13.343387 -1.877123 1.647822 -3.224886 4.276957 3.329892 -1.461217 7.717887 1.268663 -0.951926 -31.132930 -7.925873 2.665042 -44.569879 -5.773130 11.568528 1.494836 -19.110741 -1.106684 -4.708875 -3.367794 3.827768 30.751718 13.314645 9.079927 52.421960 3.678733 14.137459 -7.768176 23.091484 -8.347847 5.115915 6.642520 -5.393609 
-0.034285 1.125905 0.989063 -7.176336 -1.924365 82.668913 -1.114679 2.074657 6.989833 0.842008 -6.283057 4.658396 2.818276 11.966516 -11.238184 0.000000 -0.000000 0.000000 -2.311236 -6.266465 7.923495 -2.877950 -4.821627 -0.122195 1.952689 -12.368184 -10.265338 0.000000 -0.000000 0.000000 -3.595893 4.853634 3.924115 -1.570307 -2.024756 13.339983 -1.870299 1.655370 -3.227024 4.271711 3.339654 -1.465129 7.706666 1.294200 -0.952121 -31.091760 -7.931444 2.671336 -44.617709 -5.764872 11.586327 1.506993 -19.101916 -1.063846 -4.648636 -3.350950 3.807516 30.717832 13.330217 9.097083 52.448160 3.683447 14.134514 -7.769685 23.091678 -8.340730 5.077968 6.656801 -5.420516 
-0.034298 1.125965 0.989050 -7.181831 -1.923211 82.664174 -1.110177 2.075897 6.990059 0.839629 -6.283437 4.658607 2.812517 11.964789 -11.219613 0.000000 -0.000000 0.000000 -2.308762 -6.264403 7.923979 -2.875510 -4.822655 -0.128956 1.957344 -12.363822 -10.259999 0.000000 -0.000000 0.000000 -3.590368 4.847651 3.938932 -1.574658 -2.025198 13.318693 -1.868657 1.655289 -3.214925 4.271010 3.330352 -1.466342 7.702001 1.297538 -0.938301 -31.077572 -7.931628 2.678699 -44.631072 -5.760515 11.596934 1.506729 -19.115371 -1.027965 -4.616856 -3.347876 3.787214 30.701856 13.331825 9.102155 52.458359 3.679751 14.140107 -7.768449 23.092638 -8.325085 5.052224 6.655316 -5.445027 
-0.034335 1.126078 0.989051 -7.191632 -1.924349 82.642513 -1.105912 2.087215 7.005932 0.834427 -6.291195 4.664053 2.802408 11.976616 -11.205280 0.000000 -0.000000 0.000000 -2.311320 -6.255428 7.939212 -2.870303 -4.832544 -0.138245 1.973993 -12.367336 -10.257433 0.000000 -0.000000 0.000000 -3.591213 4.842120 3.988305 -1.577609 -2.019096 13.290166 -1.865583 1.650485 -3.214323 4.272229 3.282596 -1.466112 7.695541 1.287732 -0.862676 -31.082235 -7.920829 2.698664 -44.591746 -5.740801 11.621188 1.460981 -19.186225 -0.934241 -4.543354 -3.340382 3.762740 30.710126 13.320967 9.102734 52.445517 3.648041 14.161810 -7.756381 23.099909 -8.280424 4.994911 6.661651 -5.459449 
-0.034376 1.126184 0.989056 -7.220421 -1.918132 82.628544 -1.094357 2.102718 7.020312 0.834915 -6.293988 4.659156 2.803279 11.989773 -11.215554 0.000000 -0.000000 0.000000 -2.304763 -6.261144 7.934993 -2.872536 -4.831116 -0.133225 1.996072 -12.362751 -10.269598 0.000000 -0.000000 0.000000 -3.584808 4.856571 4.011572 -1.576119 -2.000670 13.283516 -1.863314 1.642169 -3.213580 4.269521 3.270164 -1.462675 7.699803 1.284568 -0.824210 -31.087775 -7.913050 2.715738 -44.564899 -5.725314 11.624632 1.429950 -19.263741 -0.891523 -4.520716 -3.327047 3.727295 30.702910 13.295474 9.090192 52.447686 3.616055 14.170634 -7.750515 23.130013 -8.246103 4.982736 6.647534 -5.488668 
-0.034417 1.126277 0.989067 -7.250423 -1.909204 82.620681 -1.075400 2.115917 7.028940 0.830373 -6.288837 4.651678 2.805322 11.997400 -11.229586 0.000000 -0.000000 0.000000 -2.293381 -6.269363 7.927476 -2.873776 -4.809880 -0.123701 2.009412 -12.357047 -10.276359 0.000000 -0.000000 0.000000 -3.570950 4.871915 4.011875 -1.579959 -1.981405 13.287250 -1.863899 1.636451 -3.211231 4.266201 3.273823 -1.456043 7.702994 1.293065 -0.803422 -31.087972 -7.905772 2.752084 -44.549171 -5.713394 11.609532 1.428356 -19.332378 -0.866430 -4.535356 -3.309297 3.685356 30.668308 13.269513 9.086054 52.482738 3.581086 14.175337 -7.741728 23.190148 -8.216479 4.987390 6.604708 -5.592019 
-0.034436 1.126336 0.989026 -7.255609 -1.901141 82.617278 -1.062187 2.114213 7.020793 0.827185 -6.288749 4.655959 2.791698 11.999342 -11.222159 0.000000 -0.000000 0.000000 -2.278783 -6.264780 7.921458 -2.873406 -4.796332 -0.113063 2.006872 -12.363746 -10.275662 0.000000 -0.000000 0.000000 -3.544510 4.858884 4.011053 -1.596329 -1.982910 13.269803 -1.869332 1.638846 -3.202922 4.241413 3.278050 -1.422100 7.688036 1.310909 -0.812516 -31.053515 -7.897493 2.805329 -44.572363 -5.693479 11.597144 1.471495 -19.386304 -0.844949 -4.570628 -3.274581 3.638010 30.605200 13.259104 9.101091 52.549774 3.557792 14.175467 -7.726440 23.250573 -8.179744 4.999332 6.541201 -5.752116 
-0.034442 1.126365 0.988976 -7.242144 -1.898264 82.615151 -1.062271 2.103247 7.005241 0.831411 -6.293844 4.675652 2.775875 12.002026 -11.211633 0.000000 -0.000000 0.000000 -2.272608 -6.247594 7.922020 -2.863464 -4.801857 -0.102846 1.986490 -12.377532 -10.278293 0.000000 -0.000000 0.000000 -3.526650 4.828369 4.006351 -1.611419 -2.004660 13.254957 -1.877480 1.647944 -3.199861 4.213536 3.310423 -1.378583 7.658029 1.340083 -0.851703 -30.998898 -7.885205 2.823455 -44.615531 -5.663161 11.600425 1.517894 -19.384165 -0.829525 -4.599938 -3.225087 3.631292 30.566968 13.251293 9.120706 52.591879 3.561238 14.165777 -7.722312 23.265799 -8.141971 5.005516 6.492100 -5.793125 
-0.034467 1.126404 0.988941 -7.242215 -1.895884 82.606983 -1.060085 2.094870 7.000884 0.832995 -6.288849 4.698955 2.764994 12.004418 -11.199238 0.000000 -0.000000 0.000000 -2.266974 -6.229854 7.926521 -2.855891 -4.810964 -0.097950 1.970436 -12.383049 -10.282574 0.000000 -0.000000 0.000000 -3.515507 4.810823 4.009415 -1.621002 -2.017573 13.237317 -1.881580 1.655629 -3.190254 4.208323 3.387491 -1.357428 7.630975 1.390854 -0.899102 -30.946280 -7.878309 2.812661 -44.653743 -5.628978 11.606937 1.552566 -19.356671 -0.817949 -4.611094 -3.188518 3.632623 30.547774 13.239588 9.128380 52.618172 3.572749 14.157546 -7.749616 23.266210 -8.109700 5.001622 6.429359 -5.741322 
